<svg xmlns="http://www.w3.org/2000/svg" xmlns:xlink="http://www.w3.org/1999/xlink" width="1920" zoomAndPan="magnify" viewBox="0 0 1440 809.999993" height="1080" preserveAspectRatio="xMidYMid meet" version="1.0"><defs><filter x="0%" y="0%" width="100%" height="100%" id="998d11304b"><feColorMatrix values="0 0 0 0 1 0 0 0 0 1 0 0 0 0 1 0 0 0 1 0" color-interpolation-filters="sRGB"/></filter><mask id="13c5b79e61"><g filter="url(#998d11304b)"><rect x="-144" width="1728" fill="#000000" y="-80.999999" height="971.999992" fill-opacity="0.6"/></g></mask><clipPath id="f5e5139c59"><path d="M 0 126 L 502.324219 126 L 502.324219 250 L 0 250 Z M 0 126 " clip-rule="nonzero"/></clipPath><clipPath id="f7c874fba0"><path d="M 0 63 L 502.324219 63 L 502.324219 149 L 0 149 Z M 0 63 " clip-rule="nonzero"/></clipPath><clipPath id="c0296286d6"><path d="M 0 0.824219 L 467 0.824219 L 467 86 L 0 86 Z M 0 0.824219 " clip-rule="nonzero"/></clipPath><clipPath id="ae385c3af7"><path d="M 428.6875 126 L 1010.679688 126 L 1010.679688 250 L 428.6875 250 Z M 428.6875 126 " clip-rule="nonzero"/></clipPath><clipPath id="44ee0f47da"><path d="M 428.6875 63 L 1010.679688 63 L 1010.679688 149 L 428.6875 149 Z M 428.6875 63 " clip-rule="nonzero"/></clipPath><clipPath id="f0abb99c15"><path d="M 465 0.824219 L 975 0.824219 L 975 86 L 465 86 Z M 465 0.824219 " clip-rule="nonzero"/></clipPath><clipPath id="d450fbdcf1"><path d="M 937.371094 126 L 1440 126 L 1440 250 L 937.371094 250 Z M 937.371094 126 " clip-rule="nonzero"/></clipPath><clipPath id="5e5787c69d"><path d="M 937.371094 63 L 1440 63 L 1440 149 L 937.371094 149 Z M 937.371094 63 " clip-rule="nonzero"/></clipPath><clipPath id="964c00f9ff"><path d="M 973 0.824219 L 1440 0.824219 L 1440 86 L 973 86 Z M 973 0.824219 " clip-rule="nonzero"/></clipPath><clipPath id="a86085edb9"><rect x="0" width="1440" y="0" height="250"/></clipPath></defs><g mask="url(#13c5b79e61)"><g transform="matrix(1, 0, 0, 1, 0, 560)"><g clip-path="url(#a86085edb9)"><g clip-path="url(#f5e5139c59)"><path fill="#ff9af8" d="M 502.597656 210.832031 L 502.253906 210.632812 L 502.253906 210.234375 L 501.90625 210.433594 L 465.949219 189.667969 L 465.949219 148.148438 L 466.292969 147.949219 L 465.949219 147.75 L 465.949219 147.351562 L 465.601562 147.550781 L 429.296875 126.585938 L 392.992188 147.550781 L 356.6875 126.585938 L 320.382812 147.550781 L 284.078125 126.585938 L 247.773438 147.550781 L 211.46875 126.585938 L 175.46875 147.375 L 175.164062 147.550781 L 174.859375 147.375 L 138.859375 126.585938 L 102.859375 147.375 L 102.554688 147.550781 L 102.273438 147.386719 L 66.25 126.585938 L 30.25 147.375 L 29.945312 147.550781 L 29.640625 147.375 L -6.359375 126.585938 L -42.664062 147.550781 L -43.011719 147.351562 L -43.011719 147.75 L -43.355469 147.949219 L -43.011719 148.148438 L -43.011719 189.667969 L -78.96875 210.433594 L -79.316406 210.234375 L -79.316406 210.632812 L -79.660156 210.832031 L -79.316406 211.03125 L -79.316406 252.945312 L -43.011719 273.910156 L -43.011719 274.308594 L -42.664062 274.109375 L -42.320312 274.308594 L -42.320312 273.910156 L -6.359375 253.148438 L 29.597656 273.910156 L 29.597656 274.308594 L 29.945312 274.109375 L 30.289062 274.308594 L 30.289062 273.910156 L 66.25 253.148438 L 102.207031 273.910156 L 102.207031 274.308594 L 102.554688 274.109375 L 102.898438 274.308594 L 102.898438 273.910156 L 138.859375 253.148438 L 174.816406 273.910156 L 174.816406 274.308594 L 175.164062 274.109375 L 175.507812 274.308594 L 175.507812 273.910156 L 211.46875 253.148438 L 247.425781 273.910156 L 247.425781 274.308594 L 247.773438 274.109375 L 248.117188 274.308594 L 248.117188 273.910156 L 284.078125 253.148438 L 320.035156 273.910156 L 320.035156 274.308594 L 320.382812 274.109375 L 320.730469 274.308594 L 320.730469 273.910156 L 356.6875 253.148438 L 392.644531 273.910156 L 392.644531 274.308594 L 392.992188 274.109375 L 393.339844 274.308594 L 393.339844 273.910156 L 429.296875 253.148438 L 465.253906 273.910156 L 465.253906 274.308594 L 465.601562 274.109375 L 465.949219 274.308594 L 465.949219 273.910156 L 502.078125 253.046875 L 502.253906 252.945312 L 502.253906 211.03125 Z M 174.816406 189.664062 L 139.203125 210.230469 L 139.203125 169.105469 L 174.816406 148.546875 Z M 102.207031 189.664062 L 66.59375 210.230469 L 66.59375 169.105469 L 102.207031 148.546875 Z M 29.597656 189.664062 L -6.015625 210.230469 L -6.015625 169.105469 L 29.597656 148.546875 Z M 247.425781 189.664062 L 211.8125 210.230469 L 211.8125 169.105469 L 247.425781 148.546875 Z M 320.035156 189.664062 L 284.425781 210.230469 L 284.425781 169.105469 L 320.035156 148.546875 Z M 392.644531 189.664062 L 357.035156 210.230469 L 357.035156 169.105469 L 392.644531 148.546875 Z M 428.949219 169.105469 L 428.949219 210.230469 L 393.339844 189.664062 L 393.339844 148.546875 L 397.011719 150.667969 Z M 356.339844 169.105469 L 356.339844 210.230469 L 320.730469 189.664062 L 320.730469 148.546875 L 324.402344 150.667969 Z M 283.730469 169.105469 L 283.730469 210.230469 L 248.117188 189.664062 L 248.117188 148.546875 L 251.792969 150.667969 Z M 211.121094 169.105469 L 211.121094 210.230469 L 175.507812 189.664062 L 175.507812 148.546875 L 191.59375 157.832031 Z M 138.511719 169.105469 L 138.511719 210.230469 L 102.898438 189.664062 L 102.898438 148.546875 L 118.984375 157.832031 Z M 65.902344 169.105469 L 65.902344 210.230469 L 30.289062 189.664062 L 30.289062 148.546875 L 46.375 157.832031 Z M 29.945312 190.265625 L 65.558594 210.832031 L 29.945312 231.390625 L -5.667969 210.832031 Z M 102.554688 190.265625 L 138.167969 210.832031 L 102.554688 231.390625 L 66.941406 210.832031 Z M 175.164062 190.265625 L 210.777344 210.832031 L 175.164062 231.390625 L 139.550781 210.832031 Z M 247.773438 190.265625 L 283.386719 210.832031 L 247.773438 231.390625 L 212.160156 210.832031 Z M 320.382812 190.265625 L 355.996094 210.832031 L 320.382812 231.390625 L 284.769531 210.832031 Z M 392.992188 190.265625 L 428.605469 210.832031 L 392.992188 231.390625 L 357.378906 210.832031 Z M 465.253906 189.664062 L 429.644531 210.230469 L 429.644531 169.105469 L 465.253906 148.546875 Z M 465.601562 231.390625 L 429.988281 210.832031 L 465.601562 190.265625 L 501.214844 210.832031 Z M 464.910156 147.949219 L 429.296875 168.507812 L 393.683594 147.949219 L 429.296875 127.382812 Z M 392.300781 147.949219 L 356.6875 168.507812 L 321.074219 147.949219 L 356.6875 127.382812 Z M 319.691406 147.949219 L 284.078125 168.507812 L 248.464844 147.949219 L 284.078125 127.382812 Z M 247.082031 147.949219 L 211.46875 168.507812 L 175.855469 147.949219 L 211.46875 127.382812 Z M 174.472656 147.949219 L 138.859375 168.507812 L 103.246094 147.949219 L 138.859375 127.382812 Z M 101.863281 147.949219 L 66.25 168.507812 L 30.636719 147.949219 L 66.25 127.382812 Z M -6.359375 127.382812 L 29.253906 147.949219 L -6.359375 168.507812 L -41.972656 147.949219 Z M -6.707031 169.105469 L -6.707031 210.230469 L -42.320312 189.664062 L -42.320312 148.546875 L -26.234375 157.832031 Z M -42.664062 190.265625 L -7.050781 210.832031 L -42.664062 231.390625 L -78.277344 210.832031 Z M -78.625 252.546875 L -78.625 211.429688 L -62.539062 220.714844 L -43.011719 231.988281 L -43.011719 273.113281 Z M -42.320312 231.988281 L -6.707031 211.429688 L -6.707031 252.546875 L -42.320312 273.113281 Z M -6.015625 252.546875 L -6.015625 211.429688 L 10.070312 220.714844 L 29.597656 231.988281 L 29.597656 273.113281 Z M 30.289062 231.988281 L 65.902344 211.429688 L 65.902344 252.546875 L 30.289062 273.113281 Z M 66.59375 252.546875 L 66.59375 211.429688 L 82.46875 220.59375 L 102.207031 231.988281 L 102.207031 273.113281 Z M 102.898438 231.988281 L 138.511719 211.429688 L 138.511719 252.546875 L 102.898438 273.113281 Z M 139.203125 252.546875 L 139.203125 211.429688 L 155.289062 220.714844 L 174.816406 231.988281 L 174.816406 273.113281 Z M 175.507812 231.988281 L 211.121094 211.429688 L 211.121094 252.546875 L 175.507812 273.113281 Z M 211.8125 252.546875 L 211.8125 211.429688 L 215.488281 213.550781 L 247.425781 231.988281 L 247.425781 273.113281 Z M 248.117188 231.988281 L 283.730469 211.429688 L 283.730469 252.546875 L 248.117188 273.113281 Z M 284.425781 252.546875 L 284.425781 211.429688 L 288.097656 213.550781 L 320.035156 231.988281 L 320.035156 273.113281 Z M 320.730469 231.988281 L 356.339844 211.429688 L 356.339844 252.546875 L 320.730469 273.113281 Z M 357.035156 252.546875 L 357.035156 211.429688 L 360.707031 213.550781 L 392.644531 231.988281 L 392.644531 273.113281 Z M 393.339844 231.988281 L 428.949219 211.429688 L 428.949219 252.546875 L 393.339844 273.113281 Z M 429.644531 252.546875 L 429.644531 211.429688 L 433.316406 213.550781 L 465.253906 231.988281 L 465.253906 273.113281 Z M 501.5625 252.546875 L 465.949219 273.113281 L 465.949219 231.988281 L 501.5625 211.429688 Z M 501.5625 252.546875 " fill-opacity="1" fill-rule="nonzero"/></g><g clip-path="url(#f7c874fba0)"><path fill="#9f939f" d="M 502.597656 85.070312 L 502.253906 84.871094 L 502.253906 84.46875 L 501.90625 84.667969 L 465.601562 63.707031 L 429.296875 84.667969 L 392.992188 63.707031 L 356.6875 84.667969 L 320.382812 63.707031 L 284.078125 84.667969 L 247.773438 63.707031 L 211.46875 84.667969 L 211.164062 84.492188 L 175.164062 63.707031 L 139.164062 84.492188 L 138.859375 84.667969 L 138.554688 84.492188 L 102.554688 63.707031 L 66.53125 84.507812 L 66.25 84.667969 L 65.945312 84.496094 L 29.945312 63.707031 L -6.054688 84.492188 L -6.359375 84.667969 L -6.664062 84.492188 L -42.664062 63.707031 L -78.96875 84.667969 L -79.316406 84.46875 L -79.316406 84.871094 L -79.660156 85.070312 L -79.316406 85.269531 L -79.316406 127.183594 L -43.011719 148.148438 L -43.011719 148.546875 L -42.664062 148.347656 L -42.320312 148.546875 L -42.320312 148.148438 L -6.359375 127.382812 L 29.597656 148.148438 L 29.597656 148.546875 L 29.945312 148.347656 L 30.289062 148.546875 L 30.289062 148.148438 L 66.25 127.382812 L 102.207031 148.148438 L 102.207031 148.546875 L 102.554688 148.347656 L 102.898438 148.546875 L 102.898438 148.148438 L 138.859375 127.382812 L 174.816406 148.148438 L 174.816406 148.546875 L 175.164062 148.347656 L 175.507812 148.546875 L 175.507812 148.148438 L 211.46875 127.382812 L 247.425781 148.148438 L 247.425781 148.546875 L 247.773438 148.347656 L 248.117188 148.546875 L 248.117188 148.148438 L 284.078125 127.382812 L 320.035156 148.148438 L 320.035156 148.546875 L 320.382812 148.347656 L 320.730469 148.546875 L 320.730469 148.148438 L 356.6875 127.382812 L 392.644531 148.148438 L 392.644531 148.546875 L 392.992188 148.347656 L 393.339844 148.546875 L 393.339844 148.148438 L 429.296875 127.382812 L 465.253906 148.148438 L 465.253906 148.546875 L 465.601562 148.347656 L 465.949219 148.546875 L 465.949219 148.148438 L 502.078125 127.285156 L 502.253906 127.183594 L 502.253906 85.269531 Z M 501.214844 85.070312 L 465.601562 105.628906 L 429.988281 85.070312 L 465.601562 64.503906 Z M 428.605469 85.070312 L 392.992188 105.628906 L 357.378906 85.070312 L 392.992188 64.503906 Z M 355.996094 85.070312 L 320.382812 105.628906 L 284.769531 85.070312 L 320.382812 64.503906 Z M 283.386719 85.070312 L 247.773438 105.628906 L 212.160156 85.070312 L 247.773438 64.503906 Z M 210.777344 85.070312 L 175.164062 105.628906 L 139.550781 85.070312 L 175.164062 64.503906 Z M 138.167969 85.070312 L 102.554688 105.628906 L 66.941406 85.070312 L 102.554688 64.503906 Z M 65.558594 85.070312 L 29.945312 105.628906 L -5.667969 85.070312 L 29.945312 64.503906 Z M -42.664062 64.503906 L -7.050781 85.070312 L -42.664062 105.628906 L -78.277344 85.070312 Z M -78.625 126.785156 L -78.625 85.667969 L -62.539062 94.953125 L -43.011719 106.226562 L -43.011719 147.351562 Z M -42.320312 106.226562 L -6.707031 85.667969 L -6.707031 126.785156 L -42.320312 147.351562 Z M -6.015625 126.785156 L -6.015625 85.667969 L 10.070312 94.953125 L 29.597656 106.226562 L 29.597656 147.351562 Z M 30.289062 106.226562 L 65.902344 85.667969 L 65.902344 126.785156 L 30.289062 147.351562 Z M 66.59375 126.785156 L 66.59375 85.667969 L 82.46875 94.832031 L 102.207031 106.226562 L 102.207031 147.351562 Z M 102.898438 106.226562 L 138.511719 85.667969 L 138.511719 126.785156 L 102.898438 147.351562 Z M 139.203125 126.785156 L 139.203125 85.667969 L 155.289062 94.953125 L 174.816406 106.226562 L 174.816406 147.351562 Z M 175.507812 106.226562 L 211.121094 85.667969 L 211.121094 126.785156 L 175.507812 147.351562 Z M 211.8125 126.785156 L 211.8125 85.667969 L 215.488281 87.789062 L 247.425781 106.226562 L 247.425781 147.351562 Z M 248.117188 106.226562 L 283.730469 85.667969 L 283.730469 126.785156 L 248.117188 147.351562 Z M 284.425781 126.785156 L 284.425781 85.667969 L 288.097656 87.789062 L 320.035156 106.226562 L 320.035156 147.351562 Z M 320.730469 106.226562 L 356.339844 85.667969 L 356.339844 126.785156 L 320.730469 147.351562 Z M 357.035156 126.785156 L 357.035156 85.667969 L 360.707031 87.789062 L 392.644531 106.226562 L 392.644531 147.351562 Z M 393.339844 106.226562 L 428.949219 85.667969 L 428.949219 126.785156 L 393.339844 147.351562 Z M 429.644531 126.785156 L 429.644531 85.667969 L 433.316406 87.789062 L 465.253906 106.226562 L 465.253906 147.351562 Z M 501.5625 126.785156 L 465.949219 147.351562 L 465.949219 106.226562 L 501.5625 85.667969 Z M 501.5625 126.785156 " fill-opacity="1" fill-rule="nonzero"/></g><g clip-path="url(#c0296286d6)"><path fill="#404040" d="M 465.949219 22.386719 L 466.292969 22.1875 L 465.949219 21.988281 L 465.949219 21.585938 L 465.601562 21.785156 L 429.296875 0.824219 L 392.992188 21.785156 L 356.6875 0.824219 L 320.382812 21.785156 L 284.078125 0.824219 L 247.773438 21.785156 L 211.46875 0.824219 L 175.464844 21.613281 L 175.164062 21.785156 L 174.863281 21.613281 L 138.859375 0.824219 L 102.855469 21.613281 L 102.554688 21.785156 L 102.277344 21.628906 L 66.25 0.824219 L 30.246094 21.613281 L 29.945312 21.785156 L 29.644531 21.613281 L -6.359375 0.824219 L -42.664062 21.785156 L -43.011719 21.585938 L -43.011719 21.988281 L -43.355469 22.1875 L -43.011719 22.386719 L -43.011719 64.300781 L -6.707031 85.265625 L -6.707031 85.664062 L -6.359375 85.464844 L -6.015625 85.664062 L -6.015625 85.265625 L 29.945312 64.5 L 65.902344 85.265625 L 65.902344 85.664062 L 66.25 85.464844 L 66.59375 85.664062 L 66.59375 85.265625 L 102.554688 64.5 L 138.511719 85.265625 L 138.511719 85.664062 L 138.859375 85.464844 L 139.203125 85.664062 L 139.203125 85.265625 L 175.164062 64.5 L 211.121094 85.265625 L 211.121094 85.664062 L 211.46875 85.464844 L 211.8125 85.664062 L 211.8125 85.265625 L 247.773438 64.5 L 283.730469 85.265625 L 283.730469 85.664062 L 284.078125 85.464844 L 284.425781 85.664062 L 284.425781 85.265625 L 320.382812 64.5 L 356.339844 85.265625 L 356.339844 85.664062 L 356.6875 85.464844 L 357.035156 85.664062 L 357.035156 85.265625 L 392.992188 64.5 L 428.949219 85.265625 L 428.949219 85.664062 L 429.296875 85.464844 L 429.644531 85.664062 L 429.644531 85.265625 L 465.949219 64.300781 Z M 464.910156 22.1875 L 460.234375 24.886719 L 429.296875 42.746094 L 398.359375 24.886719 L 393.683594 22.1875 L 429.296875 1.621094 Z M 392.300781 22.1875 L 387.625 24.886719 L 356.6875 42.746094 L 325.75 24.886719 L 321.074219 22.1875 L 356.6875 1.621094 Z M 319.691406 22.1875 L 315.015625 24.886719 L 284.078125 42.746094 L 253.140625 24.886719 L 248.464844 22.1875 L 284.078125 1.621094 Z M 247.082031 22.1875 L 238.265625 27.273438 L 211.46875 42.746094 L 199.90625 36.070312 L 175.855469 22.1875 L 211.46875 1.621094 Z M 174.472656 22.1875 L 145.75 38.765625 L 138.859375 42.746094 L 117.699219 30.53125 L 103.246094 22.1875 L 138.859375 1.621094 Z M 101.863281 22.1875 L 73.1875 38.738281 L 66.25 42.746094 L 45.089844 30.53125 L 30.636719 22.1875 L 66.25 1.621094 Z M -6.359375 1.621094 L 29.253906 22.1875 L 0.53125 38.765625 L -6.359375 42.746094 L -27.519531 30.53125 L -41.972656 22.1875 Z M -42.320312 63.902344 L -42.320312 22.785156 L -27.863281 31.128906 L -6.707031 43.34375 L -6.707031 84.46875 Z M -6.015625 43.34375 L 15.144531 31.128906 L 29.597656 22.785156 L 29.597656 63.902344 L -6.015625 84.46875 Z M 30.289062 63.902344 L 30.289062 22.785156 L 44.746094 31.128906 L 65.902344 43.34375 L 65.902344 84.46875 Z M 66.59375 43.34375 L 87.9375 31.023438 L 102.207031 22.785156 L 102.207031 63.902344 L 66.59375 84.46875 Z M 102.898438 63.902344 L 102.898438 22.785156 L 117.355469 31.128906 L 138.511719 43.34375 L 138.511719 84.46875 Z M 139.203125 43.34375 L 160.363281 31.128906 L 174.816406 22.785156 L 174.816406 63.902344 L 139.203125 84.46875 Z M 175.507812 63.902344 L 175.507812 22.785156 L 189.964844 31.128906 L 211.121094 43.34375 L 211.121094 84.46875 Z M 211.8125 43.34375 L 245.9375 23.644531 L 247.425781 22.785156 L 247.425781 63.902344 L 211.8125 84.46875 Z M 248.117188 63.902344 L 248.117188 22.785156 L 249.609375 23.644531 L 283.730469 43.34375 L 283.730469 84.46875 Z M 284.425781 43.34375 L 318.546875 23.644531 L 320.035156 22.785156 L 320.035156 63.902344 L 284.425781 84.46875 Z M 320.730469 63.902344 L 320.730469 22.785156 L 322.21875 23.644531 L 356.339844 43.34375 L 356.339844 84.46875 Z M 357.035156 43.34375 L 391.15625 23.644531 L 392.644531 22.785156 L 392.644531 63.902344 L 357.035156 84.46875 Z M 393.339844 63.902344 L 393.339844 22.785156 L 394.828125 23.644531 L 428.949219 43.34375 L 428.949219 84.46875 Z M 465.253906 63.902344 L 429.644531 84.46875 L 429.644531 43.34375 L 463.765625 23.644531 L 465.253906 22.785156 Z M 465.253906 63.902344 " fill-opacity="1" fill-rule="nonzero"/></g><g clip-path="url(#ae385c3af7)"><path fill="#ff9af8" d="M 1010.953125 210.832031 L 1010.609375 210.632812 L 1010.609375 210.234375 L 1010.261719 210.433594 L 974.304688 189.667969 L 974.304688 148.148438 L 974.648438 147.949219 L 974.304688 147.75 L 974.304688 147.351562 L 973.957031 147.550781 L 937.652344 126.585938 L 901.347656 147.550781 L 865.042969 126.585938 L 828.738281 147.550781 L 792.433594 126.585938 L 756.128906 147.550781 L 719.824219 126.585938 L 683.824219 147.375 L 683.519531 147.550781 L 683.214844 147.375 L 647.214844 126.585938 L 611.214844 147.375 L 610.910156 147.550781 L 610.628906 147.386719 L 574.605469 126.585938 L 538.605469 147.375 L 538.300781 147.550781 L 537.996094 147.375 L 501.996094 126.585938 L 465.691406 147.550781 L 465.34375 147.351562 L 465.34375 147.75 L 465 147.949219 L 465.34375 148.148438 L 465.34375 189.667969 L 429.386719 210.433594 L 429.039062 210.234375 L 429.039062 210.632812 L 428.695312 210.832031 L 429.039062 211.03125 L 429.039062 252.945312 L 465.34375 273.910156 L 465.34375 274.308594 L 465.691406 274.109375 L 466.035156 274.308594 L 466.035156 273.910156 L 501.996094 253.148438 L 537.953125 273.910156 L 537.953125 274.308594 L 538.300781 274.109375 L 538.644531 274.308594 L 538.644531 273.910156 L 574.605469 253.148438 L 610.5625 273.910156 L 610.5625 274.308594 L 610.910156 274.109375 L 611.253906 274.308594 L 611.253906 273.910156 L 647.214844 253.148438 L 683.171875 273.910156 L 683.171875 274.308594 L 683.519531 274.109375 L 683.863281 274.308594 L 683.863281 273.910156 L 719.824219 253.148438 L 755.78125 273.910156 L 755.78125 274.308594 L 756.128906 274.109375 L 756.472656 274.308594 L 756.472656 273.910156 L 792.433594 253.148438 L 828.390625 273.910156 L 828.390625 274.308594 L 828.738281 274.109375 L 829.082031 274.308594 L 829.082031 273.910156 L 865.042969 253.148438 L 901 273.910156 L 901 274.308594 L 901.347656 274.109375 L 901.691406 274.308594 L 901.691406 273.910156 L 937.652344 253.148438 L 973.609375 273.910156 L 973.609375 274.308594 L 973.957031 274.109375 L 974.304688 274.308594 L 974.304688 273.910156 L 1010.433594 253.046875 L 1010.609375 252.945312 L 1010.609375 211.03125 Z M 683.171875 189.664062 L 647.558594 210.230469 L 647.558594 169.105469 L 683.171875 148.546875 Z M 610.5625 189.664062 L 574.949219 210.230469 L 574.949219 169.105469 L 610.5625 148.546875 Z M 537.953125 189.664062 L 502.339844 210.230469 L 502.339844 169.105469 L 537.953125 148.546875 Z M 755.78125 189.664062 L 720.167969 210.230469 L 720.167969 169.105469 L 755.78125 148.546875 Z M 828.390625 189.664062 L 792.777344 210.230469 L 792.777344 169.105469 L 828.390625 148.546875 Z M 901 189.664062 L 865.386719 210.230469 L 865.386719 169.105469 L 901 148.546875 Z M 937.304688 169.105469 L 937.304688 210.230469 L 901.691406 189.664062 L 901.691406 148.546875 L 905.367188 150.667969 Z M 864.695312 169.105469 L 864.695312 210.230469 L 829.082031 189.664062 L 829.082031 148.546875 L 832.757812 150.667969 Z M 792.085938 169.105469 L 792.085938 210.230469 L 756.472656 189.664062 L 756.472656 148.546875 L 760.148438 150.667969 Z M 719.476562 169.105469 L 719.476562 210.230469 L 683.863281 189.664062 L 683.863281 148.546875 L 699.949219 157.832031 Z M 646.867188 169.105469 L 646.867188 210.230469 L 611.253906 189.664062 L 611.253906 148.546875 L 627.339844 157.832031 Z M 574.257812 169.105469 L 574.257812 210.230469 L 538.644531 189.664062 L 538.644531 148.546875 L 554.730469 157.832031 Z M 538.300781 190.265625 L 573.914062 210.832031 L 538.300781 231.390625 L 502.6875 210.832031 Z M 610.910156 190.265625 L 646.523438 210.832031 L 610.910156 231.390625 L 575.296875 210.832031 Z M 683.519531 190.265625 L 719.132812 210.832031 L 683.519531 231.390625 L 647.90625 210.832031 Z M 756.128906 190.265625 L 791.742188 210.832031 L 756.128906 231.390625 L 720.515625 210.832031 Z M 828.738281 190.265625 L 864.351562 210.832031 L 828.738281 231.390625 L 793.125 210.832031 Z M 901.347656 190.265625 L 936.960938 210.832031 L 901.347656 231.390625 L 865.734375 210.832031 Z M 973.609375 189.664062 L 937.996094 210.230469 L 937.996094 169.105469 L 973.609375 148.546875 Z M 973.957031 231.390625 L 938.34375 210.832031 L 973.957031 190.265625 L 1009.570312 210.832031 Z M 973.265625 147.949219 L 937.652344 168.507812 L 902.039062 147.949219 L 937.652344 127.382812 Z M 900.65625 147.949219 L 865.042969 168.507812 L 829.429688 147.949219 L 865.042969 127.382812 Z M 828.046875 147.949219 L 792.433594 168.507812 L 756.820312 147.949219 L 792.433594 127.382812 Z M 755.4375 147.949219 L 719.824219 168.507812 L 684.210938 147.949219 L 719.824219 127.382812 Z M 682.828125 147.949219 L 647.214844 168.507812 L 611.601562 147.949219 L 647.214844 127.382812 Z M 610.21875 147.949219 L 574.605469 168.507812 L 538.992188 147.949219 L 574.605469 127.382812 Z M 501.996094 127.382812 L 537.609375 147.949219 L 501.996094 168.507812 L 466.382812 147.949219 Z M 501.648438 169.105469 L 501.648438 210.230469 L 466.035156 189.664062 L 466.035156 148.546875 L 482.121094 157.832031 Z M 465.691406 190.265625 L 501.304688 210.832031 L 465.691406 231.390625 L 430.078125 210.832031 Z M 429.730469 252.546875 L 429.730469 211.429688 L 445.816406 220.714844 L 465.34375 231.988281 L 465.34375 273.113281 Z M 466.035156 231.988281 L 501.648438 211.429688 L 501.648438 252.546875 L 466.035156 273.113281 Z M 502.339844 252.546875 L 502.339844 211.429688 L 518.425781 220.714844 L 537.953125 231.988281 L 537.953125 273.113281 Z M 538.644531 231.988281 L 574.257812 211.429688 L 574.257812 252.546875 L 538.644531 273.113281 Z M 574.949219 252.546875 L 574.949219 211.429688 L 590.824219 220.59375 L 610.5625 231.988281 L 610.5625 273.113281 Z M 611.253906 231.988281 L 646.867188 211.429688 L 646.867188 252.546875 L 611.253906 273.113281 Z M 647.558594 252.546875 L 647.558594 211.429688 L 663.644531 220.714844 L 683.171875 231.988281 L 683.171875 273.113281 Z M 683.863281 231.988281 L 719.476562 211.429688 L 719.476562 252.546875 L 683.863281 273.113281 Z M 720.167969 252.546875 L 720.167969 211.429688 L 723.84375 213.550781 L 755.78125 231.988281 L 755.78125 273.113281 Z M 756.472656 231.988281 L 792.085938 211.429688 L 792.085938 252.546875 L 756.472656 273.113281 Z M 792.777344 252.546875 L 792.777344 211.429688 L 796.453125 213.550781 L 828.390625 231.988281 L 828.390625 273.113281 Z M 829.082031 231.988281 L 864.695312 211.429688 L 864.695312 252.546875 L 829.082031 273.113281 Z M 865.386719 252.546875 L 865.386719 211.429688 L 869.0625 213.550781 L 901 231.988281 L 901 273.113281 Z M 901.691406 231.988281 L 937.304688 211.429688 L 937.304688 252.546875 L 901.691406 273.113281 Z M 937.996094 252.546875 L 937.996094 211.429688 L 941.671875 213.550781 L 973.609375 231.988281 L 973.609375 273.113281 Z M 1009.914062 252.546875 L 974.304688 273.113281 L 974.304688 231.988281 L 1009.914062 211.429688 Z M 1009.914062 252.546875 " fill-opacity="1" fill-rule="nonzero"/></g><g clip-path="url(#44ee0f47da)"><path fill="#9f939f" d="M 1010.953125 85.070312 L 1010.609375 84.871094 L 1010.609375 84.46875 L 1010.261719 84.667969 L 973.957031 63.707031 L 937.652344 84.667969 L 901.347656 63.707031 L 865.042969 84.667969 L 828.738281 63.707031 L 792.433594 84.667969 L 756.128906 63.707031 L 719.824219 84.667969 L 719.519531 84.492188 L 683.519531 63.707031 L 647.519531 84.492188 L 647.214844 84.667969 L 646.910156 84.492188 L 610.910156 63.707031 L 574.886719 84.507812 L 574.605469 84.667969 L 574.300781 84.496094 L 538.300781 63.707031 L 502.300781 84.492188 L 501.996094 84.667969 L 501.691406 84.492188 L 465.691406 63.707031 L 429.386719 84.667969 L 429.039062 84.46875 L 429.039062 84.871094 L 428.695312 85.070312 L 429.039062 85.269531 L 429.039062 127.183594 L 465.34375 148.148438 L 465.34375 148.546875 L 465.691406 148.347656 L 466.035156 148.546875 L 466.035156 148.148438 L 501.996094 127.382812 L 537.953125 148.148438 L 537.953125 148.546875 L 538.300781 148.347656 L 538.644531 148.546875 L 538.644531 148.148438 L 574.605469 127.382812 L 610.5625 148.148438 L 610.5625 148.546875 L 610.910156 148.347656 L 611.253906 148.546875 L 611.253906 148.148438 L 647.214844 127.382812 L 683.171875 148.148438 L 683.171875 148.546875 L 683.519531 148.347656 L 683.863281 148.546875 L 683.863281 148.148438 L 719.824219 127.382812 L 755.78125 148.148438 L 755.78125 148.546875 L 756.128906 148.347656 L 756.472656 148.546875 L 756.472656 148.148438 L 792.433594 127.382812 L 828.390625 148.148438 L 828.390625 148.546875 L 828.738281 148.347656 L 829.082031 148.546875 L 829.082031 148.148438 L 865.042969 127.382812 L 901 148.148438 L 901 148.546875 L 901.347656 148.347656 L 901.691406 148.546875 L 901.691406 148.148438 L 937.652344 127.382812 L 973.609375 148.148438 L 973.609375 148.546875 L 973.957031 148.347656 L 974.304688 148.546875 L 974.304688 148.148438 L 1010.433594 127.285156 L 1010.609375 127.183594 L 1010.609375 85.269531 Z M 1009.570312 85.070312 L 973.957031 105.628906 L 938.34375 85.070312 L 973.957031 64.503906 Z M 936.960938 85.070312 L 901.347656 105.628906 L 865.734375 85.070312 L 901.347656 64.503906 Z M 864.351562 85.070312 L 828.738281 105.628906 L 793.125 85.070312 L 828.738281 64.503906 Z M 791.742188 85.070312 L 756.128906 105.628906 L 720.515625 85.070312 L 756.128906 64.503906 Z M 719.132812 85.070312 L 683.519531 105.628906 L 647.90625 85.070312 L 683.519531 64.503906 Z M 646.523438 85.070312 L 610.910156 105.628906 L 575.296875 85.070312 L 610.910156 64.503906 Z M 573.914062 85.070312 L 538.300781 105.628906 L 502.6875 85.070312 L 538.300781 64.503906 Z M 465.691406 64.503906 L 501.304688 85.070312 L 465.691406 105.628906 L 430.078125 85.070312 Z M 429.730469 126.785156 L 429.730469 85.667969 L 445.816406 94.953125 L 465.34375 106.226562 L 465.34375 147.351562 Z M 466.035156 106.226562 L 501.648438 85.667969 L 501.648438 126.785156 L 466.035156 147.351562 Z M 502.339844 126.785156 L 502.339844 85.667969 L 518.425781 94.953125 L 537.953125 106.226562 L 537.953125 147.351562 Z M 538.644531 106.226562 L 574.257812 85.667969 L 574.257812 126.785156 L 538.644531 147.351562 Z M 574.949219 126.785156 L 574.949219 85.667969 L 590.824219 94.832031 L 610.5625 106.226562 L 610.5625 147.351562 Z M 611.253906 106.226562 L 646.867188 85.667969 L 646.867188 126.785156 L 611.253906 147.351562 Z M 647.558594 126.785156 L 647.558594 85.667969 L 663.644531 94.953125 L 683.171875 106.226562 L 683.171875 147.351562 Z M 683.863281 106.226562 L 719.476562 85.667969 L 719.476562 126.785156 L 683.863281 147.351562 Z M 720.167969 126.785156 L 720.167969 85.667969 L 723.84375 87.789062 L 755.78125 106.226562 L 755.78125 147.351562 Z M 756.472656 106.226562 L 792.085938 85.667969 L 792.085938 126.785156 L 756.472656 147.351562 Z M 792.777344 126.785156 L 792.777344 85.667969 L 796.453125 87.789062 L 828.390625 106.226562 L 828.390625 147.351562 Z M 829.082031 106.226562 L 864.695312 85.667969 L 864.695312 126.785156 L 829.082031 147.351562 Z M 865.386719 126.785156 L 865.386719 85.667969 L 869.0625 87.789062 L 901 106.226562 L 901 147.351562 Z M 901.691406 106.226562 L 937.304688 85.667969 L 937.304688 126.785156 L 901.691406 147.351562 Z M 937.996094 126.785156 L 937.996094 85.667969 L 941.671875 87.789062 L 973.609375 106.226562 L 973.609375 147.351562 Z M 1009.914062 126.785156 L 974.304688 147.351562 L 974.304688 106.226562 L 1009.914062 85.667969 Z M 1009.914062 126.785156 " fill-opacity="1" fill-rule="nonzero"/></g><g clip-path="url(#f0abb99c15)"><path fill="#404040" d="M 974.304688 22.386719 L 974.648438 22.1875 L 974.304688 21.988281 L 974.304688 21.585938 L 973.957031 21.785156 L 937.652344 0.824219 L 901.347656 21.785156 L 865.042969 0.824219 L 828.738281 21.785156 L 792.433594 0.824219 L 756.128906 21.785156 L 719.824219 0.824219 L 683.820312 21.613281 L 683.519531 21.785156 L 683.21875 21.613281 L 647.214844 0.824219 L 611.210938 21.613281 L 610.910156 21.785156 L 610.632812 21.628906 L 574.605469 0.824219 L 538.601562 21.613281 L 538.300781 21.785156 L 538 21.613281 L 501.996094 0.824219 L 465.691406 21.785156 L 465.34375 21.585938 L 465.34375 21.988281 L 465 22.1875 L 465.34375 22.386719 L 465.34375 64.300781 L 501.648438 85.265625 L 501.648438 85.664062 L 501.996094 85.464844 L 502.339844 85.664062 L 502.339844 85.265625 L 538.300781 64.5 L 574.257812 85.265625 L 574.257812 85.664062 L 574.605469 85.464844 L 574.949219 85.664062 L 574.949219 85.265625 L 610.910156 64.5 L 646.867188 85.265625 L 646.867188 85.664062 L 647.214844 85.464844 L 647.558594 85.664062 L 647.558594 85.265625 L 683.519531 64.5 L 719.476562 85.265625 L 719.476562 85.664062 L 719.824219 85.464844 L 720.167969 85.664062 L 720.167969 85.265625 L 756.128906 64.5 L 792.085938 85.265625 L 792.085938 85.664062 L 792.433594 85.464844 L 792.777344 85.664062 L 792.777344 85.265625 L 828.738281 64.5 L 864.695312 85.265625 L 864.695312 85.664062 L 865.042969 85.464844 L 865.386719 85.664062 L 865.386719 85.265625 L 901.347656 64.5 L 937.304688 85.265625 L 937.304688 85.664062 L 937.652344 85.464844 L 937.996094 85.664062 L 937.996094 85.265625 L 974.304688 64.300781 Z M 973.265625 22.1875 L 968.589844 24.886719 L 937.652344 42.746094 L 906.714844 24.886719 L 902.039062 22.1875 L 937.652344 1.621094 Z M 900.65625 22.1875 L 895.980469 24.886719 L 865.042969 42.746094 L 834.105469 24.886719 L 829.429688 22.1875 L 865.042969 1.621094 Z M 828.046875 22.1875 L 823.371094 24.886719 L 792.433594 42.746094 L 761.496094 24.886719 L 756.820312 22.1875 L 792.433594 1.621094 Z M 755.4375 22.1875 L 746.621094 27.273438 L 719.824219 42.746094 L 708.261719 36.070312 L 684.210938 22.1875 L 719.824219 1.621094 Z M 682.828125 22.1875 L 654.105469 38.765625 L 647.214844 42.746094 L 626.054688 30.53125 L 611.601562 22.1875 L 647.214844 1.621094 Z M 610.21875 22.1875 L 581.542969 38.738281 L 574.605469 42.746094 L 553.445312 30.53125 L 538.992188 22.1875 L 574.605469 1.621094 Z M 501.996094 1.621094 L 537.609375 22.1875 L 508.886719 38.765625 L 501.996094 42.746094 L 480.835938 30.53125 L 466.382812 22.1875 Z M 466.035156 63.902344 L 466.035156 22.785156 L 480.492188 31.128906 L 501.648438 43.34375 L 501.648438 84.46875 Z M 502.339844 43.34375 L 523.5 31.128906 L 537.953125 22.785156 L 537.953125 63.902344 L 502.339844 84.46875 Z M 538.644531 63.902344 L 538.644531 22.785156 L 553.101562 31.128906 L 574.257812 43.34375 L 574.257812 84.46875 Z M 574.949219 43.34375 L 596.292969 31.023438 L 610.5625 22.785156 L 610.5625 63.902344 L 574.949219 84.46875 Z M 611.253906 63.902344 L 611.253906 22.785156 L 625.710938 31.128906 L 646.867188 43.34375 L 646.867188 84.46875 Z M 647.558594 43.34375 L 668.71875 31.128906 L 683.171875 22.785156 L 683.171875 63.902344 L 647.558594 84.46875 Z M 683.863281 63.902344 L 683.863281 22.785156 L 698.320312 31.128906 L 719.476562 43.34375 L 719.476562 84.46875 Z M 720.167969 43.34375 L 754.289062 23.644531 L 755.78125 22.785156 L 755.78125 63.902344 L 720.167969 84.46875 Z M 756.472656 63.902344 L 756.472656 22.785156 L 757.964844 23.644531 L 792.085938 43.34375 L 792.085938 84.46875 Z M 792.777344 43.34375 L 826.898438 23.644531 L 828.390625 22.785156 L 828.390625 63.902344 L 792.777344 84.46875 Z M 829.082031 63.902344 L 829.082031 22.785156 L 830.574219 23.644531 L 864.695312 43.34375 L 864.695312 84.46875 Z M 865.386719 43.34375 L 899.511719 23.644531 L 901 22.785156 L 901 63.902344 L 865.386719 84.46875 Z M 901.691406 63.902344 L 901.691406 22.785156 L 903.183594 23.644531 L 937.304688 43.34375 L 937.304688 84.46875 Z M 973.609375 63.902344 L 937.996094 84.46875 L 937.996094 43.34375 L 972.121094 23.644531 L 973.609375 22.785156 Z M 973.609375 63.902344 " fill-opacity="1" fill-rule="nonzero"/></g><g clip-path="url(#d450fbdcf1)"><path fill="#ff9af8" d="M 1519.640625 210.832031 L 1519.292969 210.632812 L 1519.292969 210.234375 L 1518.949219 210.433594 L 1482.988281 189.667969 L 1482.988281 148.148438 L 1483.335938 147.949219 L 1482.988281 147.75 L 1482.988281 147.351562 L 1482.644531 147.550781 L 1446.339844 126.585938 L 1410.035156 147.550781 L 1373.730469 126.585938 L 1337.425781 147.550781 L 1301.121094 126.585938 L 1264.816406 147.550781 L 1228.511719 126.585938 L 1192.511719 147.375 L 1192.207031 147.550781 L 1191.902344 147.375 L 1155.902344 126.585938 L 1119.902344 147.375 L 1119.597656 147.550781 L 1119.316406 147.386719 L 1083.292969 126.585938 L 1047.292969 147.375 L 1046.988281 147.550781 L 1046.683594 147.375 L 1010.683594 126.585938 L 974.378906 147.550781 L 974.03125 147.351562 L 974.03125 147.75 L 973.6875 147.949219 L 974.03125 148.148438 L 974.03125 189.667969 L 938.074219 210.433594 L 937.726562 210.234375 L 937.726562 210.632812 L 937.382812 210.832031 L 937.726562 211.03125 L 937.726562 252.945312 L 974.03125 273.910156 L 974.03125 274.308594 L 974.378906 274.109375 L 974.722656 274.308594 L 974.722656 273.910156 L 1010.683594 253.148438 L 1046.640625 273.910156 L 1046.640625 274.308594 L 1046.988281 274.109375 L 1047.332031 274.308594 L 1047.332031 273.910156 L 1083.292969 253.148438 L 1119.25 273.910156 L 1119.25 274.308594 L 1119.597656 274.109375 L 1119.941406 274.308594 L 1119.941406 273.910156 L 1155.902344 253.148438 L 1191.859375 273.910156 L 1191.859375 274.308594 L 1192.207031 274.109375 L 1192.550781 274.308594 L 1192.550781 273.910156 L 1228.511719 253.148438 L 1264.46875 273.910156 L 1264.46875 274.308594 L 1264.816406 274.109375 L 1265.160156 274.308594 L 1265.160156 273.910156 L 1301.121094 253.148438 L 1337.078125 273.910156 L 1337.078125 274.308594 L 1337.425781 274.109375 L 1337.769531 274.308594 L 1337.769531 273.910156 L 1373.730469 253.148438 L 1409.6875 273.910156 L 1409.6875 274.308594 L 1410.035156 274.109375 L 1410.378906 274.308594 L 1410.378906 273.910156 L 1446.339844 253.148438 L 1482.296875 273.910156 L 1482.296875 274.308594 L 1482.644531 274.109375 L 1482.988281 274.308594 L 1482.988281 273.910156 L 1519.121094 253.046875 L 1519.292969 252.945312 L 1519.292969 211.03125 Z M 1191.859375 189.664062 L 1156.246094 210.230469 L 1156.246094 169.105469 L 1191.859375 148.546875 Z M 1119.25 189.664062 L 1083.636719 210.230469 L 1083.636719 169.105469 L 1119.25 148.546875 Z M 1046.640625 189.664062 L 1011.027344 210.230469 L 1011.027344 169.105469 L 1046.640625 148.546875 Z M 1264.46875 189.664062 L 1228.855469 210.230469 L 1228.855469 169.105469 L 1264.46875 148.546875 Z M 1337.078125 189.664062 L 1301.464844 210.230469 L 1301.464844 169.105469 L 1337.078125 148.546875 Z M 1409.6875 189.664062 L 1374.074219 210.230469 L 1374.074219 169.105469 L 1409.6875 148.546875 Z M 1445.992188 169.105469 L 1445.992188 210.230469 L 1410.378906 189.664062 L 1410.378906 148.546875 L 1414.054688 150.667969 Z M 1373.382812 169.105469 L 1373.382812 210.230469 L 1337.769531 189.664062 L 1337.769531 148.546875 L 1341.445312 150.667969 Z M 1300.773438 169.105469 L 1300.773438 210.230469 L 1265.160156 189.664062 L 1265.160156 148.546875 L 1268.835938 150.667969 Z M 1228.164062 169.105469 L 1228.164062 210.230469 L 1192.550781 189.664062 L 1192.550781 148.546875 L 1208.636719 157.832031 Z M 1155.554688 169.105469 L 1155.554688 210.230469 L 1119.941406 189.664062 L 1119.941406 148.546875 L 1136.027344 157.832031 Z M 1082.945312 169.105469 L 1082.945312 210.230469 L 1047.332031 189.664062 L 1047.332031 148.546875 L 1063.417969 157.832031 Z M 1046.988281 190.265625 L 1082.601562 210.832031 L 1046.988281 231.390625 L 1011.375 210.832031 Z M 1119.597656 190.265625 L 1155.210938 210.832031 L 1119.597656 231.390625 L 1083.984375 210.832031 Z M 1192.207031 190.265625 L 1227.820312 210.832031 L 1192.207031 231.390625 L 1156.59375 210.832031 Z M 1264.816406 190.265625 L 1300.429688 210.832031 L 1264.816406 231.390625 L 1229.203125 210.832031 Z M 1337.425781 190.265625 L 1373.039062 210.832031 L 1337.425781 231.390625 L 1301.8125 210.832031 Z M 1410.035156 190.265625 L 1445.648438 210.832031 L 1410.035156 231.390625 L 1374.421875 210.832031 Z M 1482.296875 189.664062 L 1446.683594 210.230469 L 1446.683594 169.105469 L 1482.296875 148.546875 Z M 1482.644531 231.390625 L 1447.03125 210.832031 L 1482.644531 190.265625 L 1518.257812 210.832031 Z M 1481.953125 147.949219 L 1446.339844 168.507812 L 1410.726562 147.949219 L 1446.339844 127.382812 Z M 1409.34375 147.949219 L 1373.730469 168.507812 L 1338.117188 147.949219 L 1373.730469 127.382812 Z M 1336.734375 147.949219 L 1301.121094 168.507812 L 1265.507812 147.949219 L 1301.121094 127.382812 Z M 1264.125 147.949219 L 1228.511719 168.507812 L 1192.898438 147.949219 L 1228.511719 127.382812 Z M 1191.515625 147.949219 L 1155.902344 168.507812 L 1120.289062 147.949219 L 1155.902344 127.382812 Z M 1118.90625 147.949219 L 1083.292969 168.507812 L 1047.679688 147.949219 L 1083.292969 127.382812 Z M 1010.683594 127.382812 L 1046.296875 147.949219 L 1010.683594 168.507812 L 975.070312 147.949219 Z M 1010.335938 169.105469 L 1010.335938 210.230469 L 974.722656 189.664062 L 974.722656 148.546875 L 990.808594 157.832031 Z M 974.378906 190.265625 L 1009.992188 210.832031 L 974.378906 231.390625 L 938.765625 210.832031 Z M 938.417969 252.546875 L 938.417969 211.429688 L 954.503906 220.714844 L 974.03125 231.988281 L 974.03125 273.113281 Z M 974.722656 231.988281 L 1010.335938 211.429688 L 1010.335938 252.546875 L 974.722656 273.113281 Z M 1011.027344 252.546875 L 1011.027344 211.429688 L 1027.113281 220.714844 L 1046.640625 231.988281 L 1046.640625 273.113281 Z M 1047.332031 231.988281 L 1082.945312 211.429688 L 1082.945312 252.546875 L 1047.332031 273.113281 Z M 1083.636719 252.546875 L 1083.636719 211.429688 L 1099.511719 220.59375 L 1119.25 231.988281 L 1119.25 273.113281 Z M 1119.941406 231.988281 L 1155.554688 211.429688 L 1155.554688 252.546875 L 1119.941406 273.113281 Z M 1156.246094 252.546875 L 1156.246094 211.429688 L 1172.332031 220.714844 L 1191.859375 231.988281 L 1191.859375 273.113281 Z M 1192.550781 231.988281 L 1228.164062 211.429688 L 1228.164062 252.546875 L 1192.550781 273.113281 Z M 1228.855469 252.546875 L 1228.855469 211.429688 L 1232.53125 213.550781 L 1264.46875 231.988281 L 1264.46875 273.113281 Z M 1265.160156 231.988281 L 1300.773438 211.429688 L 1300.773438 252.546875 L 1265.160156 273.113281 Z M 1301.464844 252.546875 L 1301.464844 211.429688 L 1305.140625 213.550781 L 1337.078125 231.988281 L 1337.078125 273.113281 Z M 1337.769531 231.988281 L 1373.382812 211.429688 L 1373.382812 252.546875 L 1337.769531 273.113281 Z M 1374.074219 252.546875 L 1374.074219 211.429688 L 1377.75 213.550781 L 1409.6875 231.988281 L 1409.6875 273.113281 Z M 1410.378906 231.988281 L 1445.992188 211.429688 L 1445.992188 252.546875 L 1410.378906 273.113281 Z M 1446.683594 252.546875 L 1446.683594 211.429688 L 1450.359375 213.550781 L 1482.296875 231.988281 L 1482.296875 273.113281 Z M 1518.601562 252.546875 L 1482.988281 273.113281 L 1482.988281 231.988281 L 1518.601562 211.429688 Z M 1518.601562 252.546875 " fill-opacity="1" fill-rule="nonzero"/></g><g clip-path="url(#5e5787c69d)"><path fill="#9f939f" d="M 1519.640625 85.070312 L 1519.292969 84.871094 L 1519.292969 84.46875 L 1518.949219 84.667969 L 1482.644531 63.707031 L 1446.339844 84.667969 L 1410.035156 63.707031 L 1373.730469 84.667969 L 1337.425781 63.707031 L 1301.121094 84.667969 L 1264.816406 63.707031 L 1228.511719 84.667969 L 1228.207031 84.492188 L 1192.207031 63.707031 L 1156.207031 84.492188 L 1155.902344 84.667969 L 1155.597656 84.492188 L 1119.597656 63.707031 L 1083.574219 84.507812 L 1083.292969 84.667969 L 1082.988281 84.496094 L 1046.988281 63.707031 L 1010.988281 84.492188 L 1010.683594 84.667969 L 1010.378906 84.492188 L 974.378906 63.707031 L 938.074219 84.667969 L 937.726562 84.46875 L 937.726562 84.871094 L 937.382812 85.070312 L 937.726562 85.269531 L 937.726562 127.183594 L 974.03125 148.148438 L 974.03125 148.546875 L 974.378906 148.347656 L 974.722656 148.546875 L 974.722656 148.148438 L 1010.683594 127.382812 L 1046.640625 148.148438 L 1046.640625 148.546875 L 1046.988281 148.347656 L 1047.332031 148.546875 L 1047.332031 148.148438 L 1083.292969 127.382812 L 1119.25 148.148438 L 1119.25 148.546875 L 1119.597656 148.347656 L 1119.941406 148.546875 L 1119.941406 148.148438 L 1155.902344 127.382812 L 1191.859375 148.148438 L 1191.859375 148.546875 L 1192.207031 148.347656 L 1192.550781 148.546875 L 1192.550781 148.148438 L 1228.511719 127.382812 L 1264.46875 148.148438 L 1264.46875 148.546875 L 1264.816406 148.347656 L 1265.160156 148.546875 L 1265.160156 148.148438 L 1301.121094 127.382812 L 1337.078125 148.148438 L 1337.078125 148.546875 L 1337.425781 148.347656 L 1337.769531 148.546875 L 1337.769531 148.148438 L 1373.730469 127.382812 L 1409.6875 148.148438 L 1409.6875 148.546875 L 1410.035156 148.347656 L 1410.378906 148.546875 L 1410.378906 148.148438 L 1446.339844 127.382812 L 1482.296875 148.148438 L 1482.296875 148.546875 L 1482.644531 148.347656 L 1482.988281 148.546875 L 1482.988281 148.148438 L 1519.121094 127.285156 L 1519.292969 127.183594 L 1519.292969 85.269531 Z M 1518.257812 85.070312 L 1482.644531 105.628906 L 1447.03125 85.070312 L 1482.644531 64.503906 Z M 1445.648438 85.070312 L 1410.035156 105.628906 L 1374.421875 85.070312 L 1410.035156 64.503906 Z M 1373.039062 85.070312 L 1337.425781 105.628906 L 1301.8125 85.070312 L 1337.425781 64.503906 Z M 1300.429688 85.070312 L 1264.816406 105.628906 L 1229.203125 85.070312 L 1264.816406 64.503906 Z M 1227.820312 85.070312 L 1192.207031 105.628906 L 1156.59375 85.070312 L 1192.207031 64.503906 Z M 1155.210938 85.070312 L 1119.597656 105.628906 L 1083.984375 85.070312 L 1119.597656 64.503906 Z M 1082.601562 85.070312 L 1046.988281 105.628906 L 1011.375 85.070312 L 1046.988281 64.503906 Z M 974.378906 64.503906 L 1009.992188 85.070312 L 974.378906 105.628906 L 938.765625 85.070312 Z M 938.417969 126.785156 L 938.417969 85.667969 L 954.503906 94.953125 L 974.03125 106.226562 L 974.03125 147.351562 Z M 974.722656 106.226562 L 1010.335938 85.667969 L 1010.335938 126.785156 L 974.722656 147.351562 Z M 1011.027344 126.785156 L 1011.027344 85.667969 L 1027.113281 94.953125 L 1046.640625 106.226562 L 1046.640625 147.351562 Z M 1047.332031 106.226562 L 1082.945312 85.667969 L 1082.945312 126.785156 L 1047.332031 147.351562 Z M 1083.636719 126.785156 L 1083.636719 85.667969 L 1099.511719 94.832031 L 1119.25 106.226562 L 1119.25 147.351562 Z M 1119.941406 106.226562 L 1155.554688 85.667969 L 1155.554688 126.785156 L 1119.941406 147.351562 Z M 1156.246094 126.785156 L 1156.246094 85.667969 L 1172.332031 94.953125 L 1191.859375 106.226562 L 1191.859375 147.351562 Z M 1192.550781 106.226562 L 1228.164062 85.667969 L 1228.164062 126.785156 L 1192.550781 147.351562 Z M 1228.855469 126.785156 L 1228.855469 85.667969 L 1232.53125 87.789062 L 1264.46875 106.226562 L 1264.46875 147.351562 Z M 1265.160156 106.226562 L 1300.773438 85.667969 L 1300.773438 126.785156 L 1265.160156 147.351562 Z M 1301.464844 126.785156 L 1301.464844 85.667969 L 1305.140625 87.789062 L 1337.078125 106.226562 L 1337.078125 147.351562 Z M 1337.769531 106.226562 L 1373.382812 85.667969 L 1373.382812 126.785156 L 1337.769531 147.351562 Z M 1374.074219 126.785156 L 1374.074219 85.667969 L 1377.75 87.789062 L 1409.6875 106.226562 L 1409.6875 147.351562 Z M 1410.378906 106.226562 L 1445.992188 85.667969 L 1445.992188 126.785156 L 1410.378906 147.351562 Z M 1446.683594 126.785156 L 1446.683594 85.667969 L 1450.359375 87.789062 L 1482.296875 106.226562 L 1482.296875 147.351562 Z M 1518.601562 126.785156 L 1482.988281 147.351562 L 1482.988281 106.226562 L 1518.601562 85.667969 Z M 1518.601562 126.785156 " fill-opacity="1" fill-rule="nonzero"/></g><g clip-path="url(#964c00f9ff)"><path fill="#404040" d="M 1482.988281 22.386719 L 1483.335938 22.1875 L 1482.988281 21.988281 L 1482.988281 21.585938 L 1482.644531 21.785156 L 1446.339844 0.824219 L 1410.035156 21.785156 L 1373.730469 0.824219 L 1337.425781 21.785156 L 1301.121094 0.824219 L 1264.816406 21.785156 L 1228.511719 0.824219 L 1192.507812 21.613281 L 1192.207031 21.785156 L 1191.90625 21.613281 L 1155.902344 0.824219 L 1119.898438 21.613281 L 1119.597656 21.785156 L 1119.320312 21.628906 L 1083.292969 0.824219 L 1047.289062 21.613281 L 1046.988281 21.785156 L 1046.6875 21.613281 L 1010.683594 0.824219 L 974.378906 21.785156 L 974.03125 21.585938 L 974.03125 21.988281 L 973.6875 22.1875 L 974.03125 22.386719 L 974.03125 64.300781 L 1010.335938 85.265625 L 1010.335938 85.664062 L 1010.683594 85.464844 L 1011.027344 85.664062 L 1011.027344 85.265625 L 1046.988281 64.5 L 1082.945312 85.265625 L 1082.945312 85.664062 L 1083.292969 85.464844 L 1083.636719 85.664062 L 1083.636719 85.265625 L 1119.597656 64.5 L 1155.554688 85.265625 L 1155.554688 85.664062 L 1155.902344 85.464844 L 1156.246094 85.664062 L 1156.246094 85.265625 L 1192.207031 64.5 L 1228.164062 85.265625 L 1228.164062 85.664062 L 1228.511719 85.464844 L 1228.855469 85.664062 L 1228.855469 85.265625 L 1264.816406 64.5 L 1300.773438 85.265625 L 1300.773438 85.664062 L 1301.121094 85.464844 L 1301.464844 85.664062 L 1301.464844 85.265625 L 1337.425781 64.5 L 1373.382812 85.265625 L 1373.382812 85.664062 L 1373.730469 85.464844 L 1374.074219 85.664062 L 1374.074219 85.265625 L 1410.035156 64.5 L 1445.992188 85.265625 L 1445.992188 85.664062 L 1446.339844 85.464844 L 1446.683594 85.664062 L 1446.683594 85.265625 L 1482.988281 64.300781 Z M 1481.953125 22.1875 L 1477.277344 24.886719 L 1446.339844 42.746094 L 1415.402344 24.886719 L 1410.726562 22.1875 L 1446.339844 1.621094 Z M 1409.34375 22.1875 L 1404.667969 24.886719 L 1373.730469 42.746094 L 1342.792969 24.886719 L 1338.117188 22.1875 L 1373.730469 1.621094 Z M 1336.734375 22.1875 L 1332.058594 24.886719 L 1301.121094 42.746094 L 1270.183594 24.886719 L 1265.507812 22.1875 L 1301.121094 1.621094 Z M 1264.125 22.1875 L 1255.308594 27.273438 L 1228.511719 42.746094 L 1216.945312 36.070312 L 1192.898438 22.1875 L 1228.511719 1.621094 Z M 1191.515625 22.1875 L 1162.792969 38.765625 L 1155.902344 42.746094 L 1134.742188 30.53125 L 1120.289062 22.1875 L 1155.902344 1.621094 Z M 1118.90625 22.1875 L 1090.230469 38.738281 L 1083.292969 42.746094 L 1062.132812 30.53125 L 1047.679688 22.1875 L 1083.292969 1.621094 Z M 1010.683594 1.621094 L 1046.296875 22.1875 L 1017.574219 38.765625 L 1010.683594 42.746094 L 989.523438 30.53125 L 975.070312 22.1875 Z M 974.722656 63.902344 L 974.722656 22.785156 L 989.179688 31.128906 L 1010.335938 43.34375 L 1010.335938 84.46875 Z M 1011.027344 43.34375 L 1032.1875 31.128906 L 1046.640625 22.785156 L 1046.640625 63.902344 L 1011.027344 84.46875 Z M 1047.332031 63.902344 L 1047.332031 22.785156 L 1061.789062 31.128906 L 1082.945312 43.34375 L 1082.945312 84.46875 Z M 1083.636719 43.34375 L 1104.980469 31.023438 L 1119.25 22.785156 L 1119.25 63.902344 L 1083.636719 84.46875 Z M 1119.941406 63.902344 L 1119.941406 22.785156 L 1134.398438 31.128906 L 1155.554688 43.34375 L 1155.554688 84.46875 Z M 1156.246094 43.34375 L 1177.40625 31.128906 L 1191.859375 22.785156 L 1191.859375 63.902344 L 1156.246094 84.46875 Z M 1192.550781 63.902344 L 1192.550781 22.785156 L 1207.007812 31.128906 L 1228.164062 43.34375 L 1228.164062 84.46875 Z M 1228.855469 43.34375 L 1262.976562 23.644531 L 1264.46875 22.785156 L 1264.46875 63.902344 L 1228.855469 84.46875 Z M 1265.160156 63.902344 L 1265.160156 22.785156 L 1266.652344 23.644531 L 1300.773438 43.34375 L 1300.773438 84.46875 Z M 1301.464844 43.34375 L 1335.585938 23.644531 L 1337.078125 22.785156 L 1337.078125 63.902344 L 1301.464844 84.46875 Z M 1337.769531 63.902344 L 1337.769531 22.785156 L 1339.261719 23.644531 L 1373.382812 43.34375 L 1373.382812 84.46875 Z M 1374.074219 43.34375 L 1408.195312 23.644531 L 1409.6875 22.785156 L 1409.6875 63.902344 L 1374.074219 84.46875 Z M 1410.378906 63.902344 L 1410.378906 22.785156 L 1411.871094 23.644531 L 1445.992188 43.34375 L 1445.992188 84.46875 Z M 1482.296875 63.902344 L 1446.683594 84.46875 L 1446.683594 43.34375 L 1480.804688 23.644531 L 1482.296875 22.785156 Z M 1482.296875 63.902344 " fill-opacity="1" fill-rule="nonzero"/></g></g></g></g></svg>